<?xml version="1.0" encoding="UTF-8" standalone="no"?>
<!DOCTYPE svg PUBLIC "-//W3C//DTD SVG 1.1//EN"
 "http://www.w3.org/Graphics/SVG/1.1/DTD/svg11.dtd">
<!-- Generated by graphviz version 2.47.0 (20210316.0004)
 -->
<!-- Title: dbml Pages: 1 -->
<svg width="2119pt" height="886pt"
 viewBox="0.00 0.00 2118.53 885.92" xmlns="http://www.w3.org/2000/svg" xmlns:xlink="http://www.w3.org/1999/xlink">
<g id="graph0" class="graph" transform="scale(1 1) rotate(0) translate(4 881.92)">
<title>dbml</title>
<!-- Customer -->
<g id="Customer" class="node">
<title>Customer</title>
<ellipse fill="none" stroke="black" stroke-width="0" cx="1858.8" cy="-650.53" rx="251.96" ry="214.92"/>
<polygon fill="#1d71b8" stroke="transparent" points="1682.8,-740.53 1682.8,-800.53 2034.8,-800.53 2034.8,-740.53 1682.8,-740.53"/>
<polygon fill="none" stroke="#29235c" points="1682.8,-740.53 1682.8,-800.53 2034.8,-800.53 2034.8,-740.53 1682.8,-740.53"/>
<text text-anchor="start" x="1727.21" y="-761.73" font-family="Helvetica,sans-Serif" font-weight="bold" font-size="32.00" fill="#ffffff"> &#160;&#160;&#160;&#160;&#160;&#160;Customer &#160;&#160;&#160;&#160;&#160;&#160;</text>
<polygon fill="#e7e2dd" stroke="transparent" points="1682.8,-680.53 1682.8,-740.53 2034.8,-740.53 2034.8,-680.53 1682.8,-680.53"/>
<polygon fill="none" stroke="#29235c" points="1682.8,-680.53 1682.8,-740.53 2034.8,-740.53 2034.8,-680.53 1682.8,-680.53"/>
<text text-anchor="start" x="1693.8" y="-701.73" font-family="Helvetica,sans-Serif" font-weight="bold" font-size="32.00" fill="#29235c">id</text>
<text text-anchor="start" x="1718.69" y="-701.73" font-family="Helvetica,sans-Serif" font-size="32.00" fill="#29235c"> &#160;&#160;&#160;</text>
<text text-anchor="start" x="1881.58" y="-701.73" font-family="Helvetica,sans-Serif" font-style="italic" font-size="32.00" fill="#29235c">INTEGER</text>
<polygon fill="#e7e2dd" stroke="transparent" points="1682.8,-620.53 1682.8,-680.53 2034.8,-680.53 2034.8,-620.53 1682.8,-620.53"/>
<polygon fill="none" stroke="#29235c" points="1682.8,-620.53 1682.8,-680.53 2034.8,-680.53 2034.8,-620.53 1682.8,-620.53"/>
<text text-anchor="start" x="1693.8" y="-640.73" font-family="Helvetica,sans-Serif" font-size="32.00" fill="#29235c">name &#160;&#160;&#160;</text>
<text text-anchor="start" x="1810.49" y="-641.73" font-family="Helvetica,sans-Serif" font-style="italic" font-size="32.00" fill="#29235c">VARCHAR(50)</text>
<polygon fill="#e7e2dd" stroke="transparent" points="1682.8,-560.53 1682.8,-620.53 2034.8,-620.53 2034.8,-560.53 1682.8,-560.53"/>
<polygon fill="none" stroke="#29235c" points="1682.8,-560.53 1682.8,-620.53 2034.8,-620.53 2034.8,-560.53 1682.8,-560.53"/>
<text text-anchor="start" x="1693.8" y="-580.73" font-family="Helvetica,sans-Serif" font-size="32.00" fill="#29235c">balance &#160;&#160;&#160;</text>
<text text-anchor="start" x="1881.58" y="-581.73" font-family="Helvetica,sans-Serif" font-style="italic" font-size="32.00" fill="#29235c">DECIMAL</text>
<polygon fill="#e7e2dd" stroke="transparent" points="1682.8,-500.53 1682.8,-560.53 2034.8,-560.53 2034.8,-500.53 1682.8,-500.53"/>
<polygon fill="none" stroke="#29235c" points="1682.8,-500.53 1682.8,-560.53 2034.8,-560.53 2034.8,-500.53 1682.8,-500.53"/>
<text text-anchor="start" x="1693.58" y="-520.73" font-family="Helvetica,sans-Serif" font-size="32.00" fill="#29235c">credit_limit &#160;&#160;&#160;</text>
<text text-anchor="start" x="1881.69" y="-521.73" font-family="Helvetica,sans-Serif" font-style="italic" font-size="32.00" fill="#29235c">DECIMAL</text>
<polygon fill="none" stroke="#29235c" stroke-width="2" points="1681.8,-499.53 1681.8,-801.53 2035.8,-801.53 2035.8,-499.53 1681.8,-499.53"/>
</g>
<!-- Item -->
<g id="Item" class="node">
<title>Item</title>
<ellipse fill="none" stroke="black" stroke-width="0" cx="737.45" cy="-404.53" rx="248.8" ry="299.63"/>
<polygon fill="#1d71b8" stroke="transparent" points="563.45,-554.53 563.45,-614.53 911.45,-614.53 911.45,-554.53 563.45,-554.53"/>
<polygon fill="none" stroke="#29235c" points="563.45,-554.53 563.45,-614.53 911.45,-614.53 911.45,-554.53 563.45,-554.53"/>
<text text-anchor="start" x="644.09" y="-575.73" font-family="Helvetica,sans-Serif" font-weight="bold" font-size="32.00" fill="#ffffff"> &#160;&#160;&#160;&#160;&#160;&#160;Item &#160;&#160;&#160;&#160;&#160;&#160;</text>
<polygon fill="#e7e2dd" stroke="transparent" points="563.45,-494.53 563.45,-554.53 911.45,-554.53 911.45,-494.53 563.45,-494.53"/>
<polygon fill="none" stroke="#29235c" points="563.45,-494.53 563.45,-554.53 911.45,-554.53 911.45,-494.53 563.45,-494.53"/>
<text text-anchor="start" x="574.45" y="-515.73" font-family="Helvetica,sans-Serif" font-weight="bold" font-size="32.00" fill="#29235c">id</text>
<text text-anchor="start" x="599.34" y="-515.73" font-family="Helvetica,sans-Serif" font-size="32.00" fill="#29235c"> &#160;&#160;&#160;</text>
<text text-anchor="start" x="758.23" y="-515.73" font-family="Helvetica,sans-Serif" font-style="italic" font-size="32.00" fill="#29235c">INTEGER</text>
<polygon fill="#e7e2dd" stroke="transparent" points="563.45,-434.53 563.45,-494.53 911.45,-494.53 911.45,-434.53 563.45,-434.53"/>
<polygon fill="none" stroke="#29235c" points="563.45,-434.53 563.45,-494.53 911.45,-494.53 911.45,-434.53 563.45,-434.53"/>
<text text-anchor="start" x="574.45" y="-454.73" font-family="Helvetica,sans-Serif" font-size="32.00" fill="#29235c">order_id &#160;&#160;&#160;</text>
<text text-anchor="start" x="758.23" y="-455.73" font-family="Helvetica,sans-Serif" font-style="italic" font-size="32.00" fill="#29235c">INTEGER</text>
<polygon fill="#e7e2dd" stroke="transparent" points="563.45,-374.53 563.45,-434.53 911.45,-434.53 911.45,-374.53 563.45,-374.53"/>
<polygon fill="none" stroke="#29235c" points="563.45,-374.53 563.45,-434.53 911.45,-434.53 911.45,-374.53 563.45,-374.53"/>
<text text-anchor="start" x="573.97" y="-394.73" font-family="Helvetica,sans-Serif" font-size="32.00" fill="#29235c">product_id &#160;&#160;&#160;</text>
<text text-anchor="start" x="758.34" y="-395.73" font-family="Helvetica,sans-Serif" font-style="italic" font-size="32.00" fill="#29235c">INTEGER</text>
<polygon fill="#e7e2dd" stroke="transparent" points="563.45,-314.53 563.45,-374.53 911.45,-374.53 911.45,-314.53 563.45,-314.53"/>
<polygon fill="none" stroke="#29235c" points="563.45,-314.53 563.45,-374.53 911.45,-374.53 911.45,-314.53 563.45,-314.53"/>
<text text-anchor="start" x="574.45" y="-334.73" font-family="Helvetica,sans-Serif" font-size="32.00" fill="#29235c">quantity &#160;&#160;&#160;</text>
<text text-anchor="start" x="758.23" y="-335.73" font-family="Helvetica,sans-Serif" font-style="italic" font-size="32.00" fill="#29235c">INTEGER</text>
<polygon fill="#e7e2dd" stroke="transparent" points="563.45,-254.53 563.45,-314.53 911.45,-314.53 911.45,-254.53 563.45,-254.53"/>
<polygon fill="none" stroke="#29235c" points="563.45,-254.53 563.45,-314.53 911.45,-314.53 911.45,-254.53 563.45,-254.53"/>
<text text-anchor="start" x="574.45" y="-274.73" font-family="Helvetica,sans-Serif" font-size="32.00" fill="#29235c">unit_price &#160;&#160;&#160;</text>
<text text-anchor="start" x="758.23" y="-275.73" font-family="Helvetica,sans-Serif" font-style="italic" font-size="32.00" fill="#29235c">DECIMAL</text>
<polygon fill="#e7e2dd" stroke="transparent" points="563.45,-194.53 563.45,-254.53 911.45,-254.53 911.45,-194.53 563.45,-194.53"/>
<polygon fill="none" stroke="#29235c" points="563.45,-194.53 563.45,-254.53 911.45,-254.53 911.45,-194.53 563.45,-194.53"/>
<text text-anchor="start" x="574.45" y="-214.73" font-family="Helvetica,sans-Serif" font-size="32.00" fill="#29235c">amount &#160;&#160;&#160;</text>
<text text-anchor="start" x="758.23" y="-215.73" font-family="Helvetica,sans-Serif" font-style="italic" font-size="32.00" fill="#29235c">DECIMAL</text>
<polygon fill="none" stroke="#29235c" stroke-width="2" points="562.45,-193.53 562.45,-615.53 912.45,-615.53 912.45,-193.53 562.45,-193.53"/>
</g>
<!-- Order -->
<g id="Order" class="node">
<title>Order</title>
<ellipse fill="none" stroke="black" stroke-width="0" cx="1296.71" cy="-620.53" rx="274.21" ry="257.27"/>
<polygon fill="#1d71b8" stroke="transparent" points="1104.71,-740.53 1104.71,-800.53 1488.71,-800.53 1488.71,-740.53 1104.71,-740.53"/>
<polygon fill="none" stroke="#29235c" points="1104.71,-740.53 1104.71,-800.53 1488.71,-800.53 1488.71,-740.53 1104.71,-740.53"/>
<text text-anchor="start" x="1193.57" y="-761.73" font-family="Helvetica,sans-Serif" font-weight="bold" font-size="32.00" fill="#ffffff"> &#160;&#160;&#160;&#160;&#160;&#160;Order &#160;&#160;&#160;&#160;&#160;&#160;</text>
<polygon fill="#e7e2dd" stroke="transparent" points="1104.71,-680.53 1104.71,-740.53 1488.71,-740.53 1488.71,-680.53 1104.71,-680.53"/>
<polygon fill="none" stroke="#29235c" points="1104.71,-680.53 1104.71,-740.53 1488.71,-740.53 1488.71,-680.53 1104.71,-680.53"/>
<text text-anchor="start" x="1115.71" y="-701.73" font-family="Helvetica,sans-Serif" font-weight="bold" font-size="32.00" fill="#29235c">id</text>
<text text-anchor="start" x="1140.6" y="-701.73" font-family="Helvetica,sans-Serif" font-size="32.00" fill="#29235c"> &#160;&#160;&#160;</text>
<text text-anchor="start" x="1335.49" y="-701.73" font-family="Helvetica,sans-Serif" font-style="italic" font-size="32.00" fill="#29235c">INTEGER</text>
<polygon fill="#e7e2dd" stroke="transparent" points="1104.71,-620.53 1104.71,-680.53 1488.71,-680.53 1488.71,-620.53 1104.71,-620.53"/>
<polygon fill="none" stroke="#29235c" points="1104.71,-620.53 1104.71,-680.53 1488.71,-680.53 1488.71,-620.53 1104.71,-620.53"/>
<text text-anchor="start" x="1115.71" y="-640.73" font-family="Helvetica,sans-Serif" font-size="32.00" fill="#29235c">customer_id &#160;&#160;&#160;</text>
<text text-anchor="start" x="1335.49" y="-641.73" font-family="Helvetica,sans-Serif" font-style="italic" font-size="32.00" fill="#29235c">INTEGER</text>
<polygon fill="#e7e2dd" stroke="transparent" points="1104.71,-560.53 1104.71,-620.53 1488.71,-620.53 1488.71,-560.53 1104.71,-560.53"/>
<polygon fill="none" stroke="#29235c" points="1104.71,-560.53 1104.71,-620.53 1488.71,-620.53 1488.71,-560.53 1104.71,-560.53"/>
<text text-anchor="start" x="1115.45" y="-580.73" font-family="Helvetica,sans-Serif" font-size="32.00" fill="#29235c">amount_total &#160;&#160;&#160;</text>
<text text-anchor="start" x="1335.6" y="-581.73" font-family="Helvetica,sans-Serif" font-style="italic" font-size="32.00" fill="#29235c">DECIMAL</text>
<polygon fill="#e7e2dd" stroke="transparent" points="1104.71,-500.53 1104.71,-560.53 1488.71,-560.53 1488.71,-500.53 1104.71,-500.53"/>
<polygon fill="none" stroke="#29235c" points="1104.71,-500.53 1104.71,-560.53 1488.71,-560.53 1488.71,-500.53 1104.71,-500.53"/>
<text text-anchor="start" x="1115.71" y="-520.73" font-family="Helvetica,sans-Serif" font-size="32.00" fill="#29235c">date_shipped &#160;&#160;&#160;</text>
<text text-anchor="start" x="1392.38" y="-521.73" font-family="Helvetica,sans-Serif" font-style="italic" font-size="32.00" fill="#29235c">DATE</text>
<polygon fill="#e7e2dd" stroke="transparent" points="1104.71,-440.53 1104.71,-500.53 1488.71,-500.53 1488.71,-440.53 1104.71,-440.53"/>
<polygon fill="none" stroke="#29235c" points="1104.71,-440.53 1104.71,-500.53 1488.71,-500.53 1488.71,-440.53 1104.71,-440.53"/>
<text text-anchor="start" x="1115.71" y="-460.73" font-family="Helvetica,sans-Serif" font-size="32.00" fill="#29235c">notes &#160;&#160;&#160;</text>
<text text-anchor="start" x="1246.61" y="-461.73" font-family="Helvetica,sans-Serif" font-style="italic" font-size="32.00" fill="#29235c">VARCHAR(200)</text>
<polygon fill="none" stroke="#29235c" stroke-width="2" points="1103.71,-439.53 1103.71,-801.53 1489.71,-801.53 1489.71,-439.53 1103.71,-439.53"/>
</g>
<!-- Item&#45;&gt;Order -->
<!-- Item&#45;&gt;Order -->
<g id="edge2" class="edge">
<title>Item:e&#45;&gt;Order:w</title>
<path fill="none" stroke="#29235c" stroke-width="3" d="M912.45,-464.53C1047.42,-464.53 969.43,-698.2 1093.59,-710.07"/>
<polygon fill="#29235c" stroke="#29235c" stroke-width="3" points="1093.56,-713.57 1103.71,-710.53 1093.88,-706.58 1093.56,-713.57"/>
<text text-anchor="middle" x="1109.93" y="-720.13" font-family="Helvetica,sans-Serif" font-size="32.00" fill="#29235c">*</text>
<text text-anchor="middle" x="903.56" y="-435.73" font-family="Helvetica,sans-Serif" font-size="32.00" fill="#29235c">1</text>
</g>
<!-- Product -->
<g id="Product" class="node">
<title>Product</title>
<ellipse fill="none" stroke="black" stroke-width="0" cx="1296.71" cy="-172.53" rx="250.13" ry="172.57"/>
<polygon fill="#1d71b8" stroke="transparent" points="1121.71,-232.53 1121.71,-292.53 1471.71,-292.53 1471.71,-232.53 1121.71,-232.53"/>
<polygon fill="none" stroke="#29235c" points="1121.71,-232.53 1121.71,-292.53 1471.71,-292.53 1471.71,-232.53 1121.71,-232.53"/>
<text text-anchor="start" x="1179.33" y="-253.73" font-family="Helvetica,sans-Serif" font-weight="bold" font-size="32.00" fill="#ffffff"> &#160;&#160;&#160;&#160;&#160;&#160;Product &#160;&#160;&#160;&#160;&#160;&#160;</text>
<polygon fill="#e7e2dd" stroke="transparent" points="1121.71,-172.53 1121.71,-232.53 1471.71,-232.53 1471.71,-172.53 1121.71,-172.53"/>
<polygon fill="none" stroke="#29235c" points="1121.71,-172.53 1121.71,-232.53 1471.71,-232.53 1471.71,-172.53 1121.71,-172.53"/>
<text text-anchor="start" x="1132.71" y="-193.73" font-family="Helvetica,sans-Serif" font-weight="bold" font-size="32.00" fill="#29235c">id</text>
<text text-anchor="start" x="1157.6" y="-193.73" font-family="Helvetica,sans-Serif" font-size="32.00" fill="#29235c"> &#160;&#160;&#160;</text>
<text text-anchor="start" x="1318.49" y="-193.73" font-family="Helvetica,sans-Serif" font-style="italic" font-size="32.00" fill="#29235c">INTEGER</text>
<polygon fill="#e7e2dd" stroke="transparent" points="1121.71,-112.53 1121.71,-172.53 1471.71,-172.53 1471.71,-112.53 1121.71,-112.53"/>
<polygon fill="none" stroke="#29235c" points="1121.71,-112.53 1121.71,-172.53 1471.71,-172.53 1471.71,-112.53 1121.71,-112.53"/>
<text text-anchor="start" x="1132.41" y="-132.73" font-family="Helvetica,sans-Serif" font-size="32.00" fill="#29235c">name &#160;&#160;&#160;</text>
<text text-anchor="start" x="1247.55" y="-133.73" font-family="Helvetica,sans-Serif" font-style="italic" font-size="32.00" fill="#29235c">VARCHAR(50)</text>
<polygon fill="#e7e2dd" stroke="transparent" points="1121.71,-52.53 1121.71,-112.53 1471.71,-112.53 1471.71,-52.53 1121.71,-52.53"/>
<polygon fill="none" stroke="#29235c" points="1121.71,-52.53 1121.71,-112.53 1471.71,-112.53 1471.71,-52.53 1121.71,-52.53"/>
<text text-anchor="start" x="1132.71" y="-72.73" font-family="Helvetica,sans-Serif" font-size="32.00" fill="#29235c">unit_price &#160;&#160;&#160;</text>
<text text-anchor="start" x="1318.49" y="-73.73" font-family="Helvetica,sans-Serif" font-style="italic" font-size="32.00" fill="#29235c">DECIMAL</text>
<polygon fill="none" stroke="#29235c" stroke-width="2" points="1120.71,-51.53 1120.71,-293.53 1472.71,-293.53 1472.71,-51.53 1120.71,-51.53"/>
</g>
<!-- Item&#45;&gt;Product -->
<!-- Item&#45;&gt;Product -->
<g id="edge4" class="edge">
<title>Item:e&#45;&gt;Product:w</title>
<path fill="none" stroke="#29235c" stroke-width="3" d="M912.45,-404.53C1037.87,-404.53 994.34,-213.43 1110.52,-202.98"/>
<polygon fill="#29235c" stroke="#29235c" stroke-width="3" points="1110.87,-206.47 1120.71,-202.53 1110.57,-199.47 1110.87,-206.47"/>
<text text-anchor="middle" x="1126.93" y="-173.73" font-family="Helvetica,sans-Serif" font-size="32.00" fill="#29235c">*</text>
<text text-anchor="middle" x="903.56" y="-375.73" font-family="Helvetica,sans-Serif" font-size="32.00" fill="#29235c">1</text>
</g>
<!-- Order&#45;&gt;Customer -->
<!-- Order&#45;&gt;Customer -->
<g id="edge6" class="edge">
<title>Order:e&#45;&gt;Customer:w</title>
<path fill="none" stroke="#29235c" stroke-width="3" d="M1489.71,-650.53C1575.66,-650.53 1591.21,-705.94 1671.66,-710.27"/>
<polygon fill="#29235c" stroke="#29235c" stroke-width="3" points="1671.71,-713.77 1681.8,-710.53 1671.89,-706.77 1671.71,-713.77"/>
<text text-anchor="middle" x="1688.02" y="-720.13" font-family="Helvetica,sans-Serif" font-size="32.00" fill="#29235c">*</text>
<text text-anchor="middle" x="1498.6" y="-660.13" font-family="Helvetica,sans-Serif" font-size="32.00" fill="#29235c">1</text>
</g>
<!-- OrderDetail -->
<g id="OrderDetail" class="node">
<title>OrderDetail</title>
<ellipse fill="none" stroke="black" stroke-width="0" cx="226.27" cy="-647.53" rx="226.05" ry="172.57"/>
<polygon fill="#1d71b8" stroke="transparent" points="68.27,-707.53 68.27,-767.53 384.27,-767.53 384.27,-707.53 68.27,-707.53"/>
<polygon fill="none" stroke="#29235c" points="68.27,-707.53 68.27,-767.53 384.27,-767.53 384.27,-707.53 68.27,-707.53"/>
<text text-anchor="start" x="82.25" y="-728.73" font-family="Helvetica,sans-Serif" font-weight="bold" font-size="32.00" fill="#ffffff"> &#160;&#160;&#160;&#160;&#160;&#160;OrderDetail &#160;&#160;&#160;&#160;&#160;&#160;</text>
<polygon fill="#e7e2dd" stroke="transparent" points="68.27,-647.53 68.27,-707.53 384.27,-707.53 384.27,-647.53 68.27,-647.53"/>
<polygon fill="none" stroke="#29235c" points="68.27,-647.53 68.27,-707.53 384.27,-707.53 384.27,-647.53 68.27,-647.53"/>
<text text-anchor="start" x="79.27" y="-668.73" font-family="Helvetica,sans-Serif" font-weight="bold" font-size="32.00" fill="#29235c">id</text>
<text text-anchor="start" x="104.16" y="-668.73" font-family="Helvetica,sans-Serif" font-size="32.00" fill="#29235c"> &#160;&#160;&#160;</text>
<text text-anchor="start" x="231.06" y="-668.73" font-family="Helvetica,sans-Serif" font-style="italic" font-size="32.00" fill="#29235c">INTEGER</text>
<polygon fill="#e7e2dd" stroke="transparent" points="68.27,-587.53 68.27,-647.53 384.27,-647.53 384.27,-587.53 68.27,-587.53"/>
<polygon fill="none" stroke="#29235c" points="68.27,-587.53 68.27,-647.53 384.27,-647.53 384.27,-587.53 68.27,-587.53"/>
<text text-anchor="start" x="78.81" y="-607.73" font-family="Helvetica,sans-Serif" font-size="32.00" fill="#29235c">order_id &#160;&#160;&#160;</text>
<text text-anchor="start" x="231.17" y="-608.73" font-family="Helvetica,sans-Serif" font-style="italic" font-size="32.00" fill="#29235c">INTEGER</text>
<polygon fill="#e7e2dd" stroke="transparent" points="68.27,-527.53 68.27,-587.53 384.27,-587.53 384.27,-527.53 68.27,-527.53"/>
<polygon fill="none" stroke="#29235c" points="68.27,-527.53 68.27,-587.53 384.27,-587.53 384.27,-527.53 68.27,-527.53"/>
<text text-anchor="start" x="79.27" y="-547.73" font-family="Helvetica,sans-Serif" font-size="32.00" fill="#29235c">item_id &#160;&#160;&#160;</text>
<text text-anchor="start" x="231.06" y="-548.73" font-family="Helvetica,sans-Serif" font-style="italic" font-size="32.00" fill="#29235c">INTEGER</text>
<polygon fill="none" stroke="#29235c" stroke-width="2" points="67.27,-526.53 67.27,-768.53 385.27,-768.53 385.27,-526.53 67.27,-526.53"/>
</g>
<!-- OrderDetail&#45;&gt;Item -->
<!-- OrderDetail&#45;&gt;Item -->
<g id="edge8" class="edge">
<title>OrderDetail:e&#45;&gt;Item:w</title>
<path fill="none" stroke="#29235c" stroke-width="3" d="M385.27,-557.53C461.77,-557.53 480.7,-527.43 552.03,-524.73"/>
<polygon fill="#29235c" stroke="#29235c" stroke-width="3" points="552.52,-528.22 562.45,-524.53 552.39,-521.22 552.52,-528.22"/>
<text text-anchor="middle" x="556.23" y="-495.73" font-family="Helvetica,sans-Serif" font-size="32.00" fill="#29235c">*</text>
<text text-anchor="middle" x="376.38" y="-528.73" font-family="Helvetica,sans-Serif" font-size="32.00" fill="#29235c">1</text>
</g>
<!-- OrderDetail&#45;&gt;Order -->
<!-- OrderDetail&#45;&gt;Order -->
<g id="edge10" class="edge">
<title>OrderDetail:e&#45;&gt;Order:w</title>
<path fill="none" stroke="#29235c" stroke-width="3" d="M385.27,-617.53C447.94,-617.53 430.22,-690.61 488.55,-713.53 612.67,-762.31 949.99,-713.06 1093.32,-710.63"/>
<polygon fill="#29235c" stroke="#29235c" stroke-width="3" points="1093.74,-714.12 1103.71,-710.53 1093.68,-707.12 1093.74,-714.12"/>
<text text-anchor="middle" x="1109.93" y="-681.73" font-family="Helvetica,sans-Serif" font-size="32.00" fill="#29235c">*</text>
<text text-anchor="middle" x="394.17" y="-598.33" font-family="Helvetica,sans-Serif" font-size="32.00" fill="#29235c">1</text>
</g>
</g>
</svg>
